<svg width="180" height="180" viewBox="0 0 180 180" fill="none" xmlns="http://www.w3.org/2000/svg">
  <rect width="180" height="180" rx="36" fill="#020402"/>
  <rect x="12" y="12" width="156" height="156" rx="28" fill="#041006" stroke="#0D2A12" stroke-width="2"/>

  <g opacity="0.32" fill="#24FF6D" font-family="Consolas, 'Courier New', monospace" font-size="14" font-weight="700">
    <text x="26" y="36">0</text>
    <text x="46" y="50">1</text>
    <text x="64" y="32">0</text>
    <text x="84" y="46">1</text>
    <text x="106" y="34">0</text>
    <text x="126" y="48">1</text>
    <text x="36" y="142">1</text>
    <text x="58" y="154">0</text>
    <text x="80" y="140">1</text>
    <text x="102" y="154">0</text>
    <text x="124" y="142">1</text>
  </g>

  <path d="M58 58H124" stroke="#1B5D2E" stroke-width="2" stroke-linecap="round"/>
  <path d="M58 90H120" stroke="#1B5D2E" stroke-width="2" stroke-linecap="round"/>
  <path d="M58 122H124" stroke="#1B5D2E" stroke-width="2" stroke-linecap="round"/>

  <path d="M77 58L58 90L77 122" stroke="#3AFF84" stroke-width="8" stroke-linecap="round" stroke-linejoin="round"/>
  <path d="M104 58L123 90L104 122" stroke="#3AFF84" stroke-width="8" stroke-linecap="round" stroke-linejoin="round"/>
  <rect x="84" y="56" width="12" height="68" rx="6" fill="#2CF875"/>

  <rect x="18" y="18" width="144" height="144" rx="24" stroke="#27F66E" stroke-opacity="0.25"/>
</svg>